[h264 @ 0x55e5df7bf080] Reinit context to 1280x720, pix_fmt: yuv420p
Input #0, mov,mp4,m4a,3gp,3g2,mj2, from '/var/www/html/project/media/video/original/lv_0_20241106064643_45taZO5.mp4':
  Metadata:
    major_brand     : isom
    minor_version   : 512
    compatible_brands: isomiso2avc1mp41
    Hw              : 1
    LvMetaInfo      : {"data":{"ad_type":"","adsTemplateId":"","appVersion":"13.0.0","businessComponentId":"","businessTemplateId":"","capabilityName":"","ccTtVid":"","commercial_params":{"commercial_audio_music_cnt":0,"commercial_sticker_cnt":0,"commercial_text_font_cnt":0,"c
    aigc_info       : {"aigc_label_type":0,"source_info":""}
    bitrate         : 10000000
    maxrate         : 30000000
    te_is_reencode  : 1
    encoder         : bytevehwavc
  Duration: 00:00:57.31, start: 0.000000, bitrate: 8120 kb/s
    Stream #0:0(und): Video: h264 (High), 1 reference frame (avc1 / 0x31637661), yuv420p(tv, bt709, left), 1280x720, 7930 kb/s, 30 fps, 30 tbr, 1000k tbn, 2000k tbc (default)
    Metadata:
      handler_name    : VideoHandler
    Stream #0:1(und): Audio: aac (LC) (mp4a / 0x6134706D), 44100 Hz, stereo, fltp, 189 kb/s (default)
    Metadata:
      handler_name    : SoundHandler
Input #1, png_pipe, from '/var/www/html/project/static/images/templates/logo.png':
  Duration: N/A, bitrate: N/A
    Stream #1:0: Video: png, 1 reference frame, rgba(pc), 1920x1080 [SAR 2835:2835 DAR 16:9], 25 tbr, 25 tbn, 25 tbc
[h264 @ 0x55e5df82af40] Reinit context to 1280x720, pix_fmt: yuv420p
Input #2, mov,mp4,m4a,3gp,3g2,mj2, from '/var/www/html/project/static/images/templates/Codino.mp4':
  Metadata:
    major_brand     : mp42
    minor_version   : 1
    compatible_brands: isommp41mp42
    creation_time   : 2021-07-11T07:02:58.000000Z
  Duration: 00:00:02.00, start: 0.000000, bitrate: 1007 kb/s
    Stream #2:0(ita): Audio: aac (LC) (mp4a / 0x6134706D), 44100 Hz, stereo, fltp, 102 kb/s (default)
    Metadata:
      creation_time   : 2021-07-11T07:02:58.000000Z
      handler_name    : Core Media Audio
    Stream #2:1(und): Video: h264 (High), 1 reference frame (avc1 / 0x31637661), yuv420p(tv, bt709, progressive, left), 1280x720 [SAR 1:1 DAR 16:9], 813 kb/s, 25 fps, 25 tbr, 25k tbn, 50k tbc (default)
    Metadata:
      creation_time   : 2021-07-11T07:02:58.000000Z
      handler_name    : Core Media Video
[Parsed_scale_0 @ 0x55e5df818200] w:1280 h:720 flags:'bilinear' interl:0
[Parsed_scale_2 @ 0x55e5df883dc0] w:1280 h:720 flags:'bilinear' interl:0
[Parsed_scale_4 @ 0x55e5df7f5980] w:1280 h:720 flags:'bilinear' interl:0
Stream mapping:
  Stream #0:0 (h264) -> scale
  Stream #0:1 (aac) -> concat:in0:a0
  Stream #1:0 (png) -> scale
  Stream #2:0 (aac) -> concat:in1:a0
  Stream #2:1 (h264) -> scale
  concat:out:v0 -> Stream #0:0 (libx264)
  concat:out:a0 -> Stream #0:1 (aac)
Press [q] to stop, [?] for help
[h264 @ 0x55e5df814b00] Reinit context to 1280x720, pix_fmt: yuv420p
[h264 @ 0x55e5dfc88e80] Reinit context to 1280x720, pix_fmt: yuv420p
[Parsed_scale_0 @ 0x55e5e0b563c0] w:1280 h:720 flags:'bilinear' interl:0
[Parsed_scale_2 @ 0x55e5df89b940] w:1280 h:720 flags:'bilinear' interl:0
[Parsed_scale_4 @ 0x55e5e0b5fcc0] w:1280 h:720 flags:'bilinear' interl:0
[graph 0 input from stream 0:0 @ 0x55e5e0b64580] w:1280 h:720 pixfmt:yuv420p tb:1/1000000 fr:30/1 sar:0/1 sws_param:flags=2
[graph 0 input from stream 1:0 @ 0x55e5e0b65640] w:1920 h:1080 pixfmt:rgba tb:1/25 fr:25/1 sar:2835/2835 sws_param:flags=2
[graph 0 input from stream 2:1 @ 0x55e5e0b666c0] w:1280 h:720 pixfmt:yuv420p tb:1/25000 fr:25/1 sar:1/1 sws_param:flags=2
[graph_0_in_0_1 @ 0x55e5e0b67680] tb:1/44100 samplefmt:fltp samplerate:44100 chlayout:0x3
[graph_0_in_2_0 @ 0x55e5e0b687c0] tb:1/44100 samplefmt:fltp samplerate:44100 chlayout:0x3
[Parsed_scale_0 @ 0x55e5e0b563c0] w:1280 h:720 fmt:yuv420p sar:0/1 -> w:1280 h:720 fmt:yuv420p sar:0/1 flags:0x2
[Parsed_setsar_1 @ 0x55e5e0b56a80] w:1280 h:720 sar:0/1 dar:16/9 -> sar:1/1 dar:16/9
[Parsed_scale_2 @ 0x55e5df89b940] w:1920 h:1080 fmt:rgba sar:2835/2835 -> w:1280 h:720 fmt:yuva420p sar:1/1 flags:0x2
[Parsed_setsar_3 @ 0x55e5e0b5f080] w:1280 h:720 sar:1/1 dar:16/9 -> sar:1/1 dar:16/9
[Parsed_overlay_6 @ 0x55e5e0b61400] main w:1280 h:720 fmt:yuv420p overlay w:1280 h:720 fmt:yuva420p
[Parsed_overlay_6 @ 0x55e5e0b61400] [framesync @ 0x55e5e0b61568] Selected 1/1000000 time base
[Parsed_overlay_6 @ 0x55e5e0b61400] [framesync @ 0x55e5e0b61568] Sync level 2
[Parsed_scale_4 @ 0x55e5e0b5fcc0] w:1280 h:720 fmt:yuv420p sar:1/1 -> w:1280 h:720 fmt:yuv420p sar:1/1 flags:0x2
[Parsed_setsar_5 @ 0x55e5e0b60800] w:1280 h:720 sar:1/1 dar:16/9 -> sar:1/1 dar:16/9
[libx264 @ 0x55e5df7f5980] using SAR=1/1
[libx264 @ 0x55e5df7f5980] using cpu capabilities: MMX2 SSE2Fast SSSE3 SSE4.2 AVX FMA3 BMI2 AVX2
[libx264 @ 0x55e5df7f5980] profile High, level 3.1
[libx264 @ 0x55e5df7f5980] 264 - core 155 r2917 0a84d98 - H.264/MPEG-4 AVC codec - Copyleft 2003-2018 - http://www.videolan.org/x264.html - options: cabac=1 ref=1 deblock=1:0:0 analyse=0x3:0x113 me=hex subme=2 psy=1 psy_rd=1.00:0.00 mixed_ref=0 me_range=16 chroma_me=1 trellis=0 8x8dct=1 cqm=0 deadzone=21,11 fast_pskip=1 chroma_qp_offset=0 threads=22 lookahead_threads=5 sliced_threads=0 nr=0 decimate=1 interlaced=0 bluray_compat=0 constrained_intra=0 bframes=3 b_pyramid=2 b_adapt=1 b_bias=0 direct=1 weightb=1 open_gop=0 weightp=1 keyint=250 keyint_min=25 scenecut=40 intra_refresh=0 rc_lookahead=10 rc=crf mbtree=1 crf=18.0 qcomp=0.60 qpmin=0 qpmax=69 qpstep=4 ip_ratio=1.40 aq=1:1.00
Output #0, mp4, to '/var/www/html/project/media/video/watermarks/lv_0_20241106064643_45taZO5.mp4':
  Metadata:
    major_brand     : isom
    minor_version   : 512
    compatible_brands: isomiso2avc1mp41
    Hw              : 1
    LvMetaInfo      : {"data":{"ad_type":"","adsTemplateId":"","appVersion":"13.0.0","businessComponentId":"","businessTemplateId":"","capabilityName":"","ccTtVid":"","commercial_params":{"commercial_audio_music_cnt":0,"commercial_sticker_cnt":0,"commercial_text_font_cnt":0,"c
    aigc_info       : {"aigc_label_type":0,"source_info":""}
    bitrate         : 10000000
    maxrate         : 30000000
    te_is_reencode  : 1
    encoder         : Lavf58.29.100
    Stream #0:0: Video: h264 (libx264), 1 reference frame (avc1 / 0x31637661), yuv420p(progressive), 1280x720 [SAR 1:1 DAR 16:9], q=-1--1, 30 fps, 15360 tbn, 30 tbc (default)
    Metadata:
      encoder         : Lavc58.54.100 libx264
    Side data:
      cpb: bitrate max/min/avg: 0/0/0 buffer size: 0 vbv_delay: -1
    Stream #0:1: Audio: aac (LC) (mp4a / 0x6134706D), 44100 Hz, stereo, fltp, delay 1024, 128 kb/s (default)
    Metadata:
      encoder         : Lavc58.54.100 aac
[Parsed_overlay_6 @ 0x55e5e0b61400] [framesync @ 0x55e5e0b61568] Sync level 0
[Parsed_concat_7 @ 0x55e5e0b62600] EOF on in0:v0, 1 streams left in segment.
[Parsed_concat_7 @ 0x55e5e0b62600] EOF on in0:a0, 0 streams left in segment.
[Parsed_concat_7 @ 0x55e5e0b62600] Segment finished at pts=57266666
[Parsed_concat_7 @ 0x55e5e0b62600] EOF on in1:a0, 1 streams left in segment.
[Parsed_concat_7 @ 0x55e5e0b62600] EOF on in1:v0, 0 streams left in segment.
[Parsed_concat_7 @ 0x55e5e0b62600] Segment finished at pts=59285351
No more output streams to write to, finishing.
frame= 1768 fps= 82 q=-1.0 Lsize=   36167kB time=00:00:59.30 bitrate=4996.0kbits/s speed=2.75x    
[AVIOContext @ 0x55e5df7bd440] Statistics: 0 seeks, 43 writeouts
video:35178kB audio:925kB subtitle:0kB other streams:0kB global headers:0kB muxing overhead: 0.177142%
Input file #0 (/var/www/html/project/media/video/original/lv_0_20241106064643_45taZO5.mp4):
  Input stream #0:0 (video): 1718 packets read (56772620 bytes); 1718 frames decoded; 
  Input stream #0:1 (audio): 2468 packets read (1359548 bytes); 2466 frames decoded (2525184 samples); 
  Total: 4186 packets (58132168 bytes) demuxed
Input file #1 (/var/www/html/project/static/images/templates/logo.png):
  Input stream #1:0 (video): 1 packets read (111578 bytes); 1 frames decoded; 
  Total: 1 packets (111578 bytes) demuxed
Input file #2 (/var/www/html/project/static/images/templates/Codino.mp4):
  Input stream #2:0 (audio): 89 packets read (26579 bytes); 87 frames decoded (89024 samples); 
  Input stream #2:1 (video): 50 packets read (203365 bytes); 50 frames decoded; 
  Total: 139 packets (229944 bytes) demuxed
Output file #0 (/var/www/html/project/media/video/watermarks/lv_0_20241106064643_45taZO5.mp4):
  Output stream #0:0 (video): 1768 frames encoded; 1768 packets muxed (36022657 bytes); 
  Output stream #0:1 (audio): 2554 frames encoded (2614479 samples); 2555 packets muxed (947046 bytes); 
  Total: 4323 packets (36969703 bytes) muxed
[AVIOContext @ 0x55e5df8983c0] Statistics: 2 seeks, 145 writeouts
[libx264 @ 0x55e5df7f5980] frame I:11    Avg QP:14.72  size: 77358
[libx264 @ 0x55e5df7f5980] frame P:466   Avg QP:18.65  size: 36965
[libx264 @ 0x55e5df7f5980] frame B:1291  Avg QP:21.22  size: 13901
[libx264 @ 0x55e5df7f5980] consecutive B-frames:  2.1%  1.1%  1.0% 95.7%
[libx264 @ 0x55e5df7f5980] mb I  I16..4: 23.1% 31.4% 45.4%
[libx264 @ 0x55e5df7f5980] mb P  I16..4: 10.6% 27.1%  3.9%  P16..4: 24.4% 14.6%  9.8%  0.0%  0.0%    skip: 9.5%
[libx264 @ 0x55e5df7f5980] mb B  I16..4:  3.9%  7.2%  0.2%  B16..8: 29.6% 10.7%  1.3%  direct:20.4%  skip:26.6%  L0:42.2% L1:37.9% BI:19.9%
[libx264 @ 0x55e5df7f5980] 8x8 transform intra:63.4% inter:46.4%
[libx264 @ 0x55e5df7f5980] coded y,uvDC,uvAC intra: 65.1% 63.3% 22.4% inter: 21.5% 44.4% 3.1%
[libx264 @ 0x55e5df7f5980] i16 v,h,dc,p: 36% 21% 32% 11%
[libx264 @ 0x55e5df7f5980] i8 v,h,dc,ddl,ddr,vr,hd,vl,hu: 22% 23% 24%  4%  5%  5%  7%  4%  6%
[libx264 @ 0x55e5df7f5980] i4 v,h,dc,ddl,ddr,vr,hd,vl,hu: 25% 24% 13%  5%  8%  7%  8%  5%  6%
[libx264 @ 0x55e5df7f5980] i8c dc,h,v,p: 51% 22% 20%  7%
[libx264 @ 0x55e5df7f5980] Weighted P-Frames: Y:9.4% UV:5.8%
[libx264 @ 0x55e5df7f5980] kb/s:4862.36
[aac @ 0x55e5df817540] Qavg: 1832.195
[AVIOContext @ 0x55e5df7c63c0] Statistics: 106097282 bytes read, 2782 seeks
[AVIOContext @ 0x55e5df7f8bc0] Statistics: 111578 bytes read, 0 seeks
[AVIOContext @ 0x55e5df7faa80] Statistics: 1530915 bytes read, 42 seeks
